<svg width="32" height="32" viewBox="0 0 32 32" fill="none" xmlns="http://www.w3.org/2000/svg">
  <circle cx="16" cy="16" r="16" fill="#171A14"/>
  <path d="M16 6C17.6 8.5 20.5 10 23 10C23 15.5 20 19.5 16 22C12 19.5 9 15.5 9 10C11.5 10 14.4 8.5 16 6Z" stroke="#D4AF37" stroke-width="1.5"/>
  <path d="M16 8C17.1 9.7 19 10.7 20.6 10.7C20.6 14.4 18.6 17.1 16 18.8C13.4 17.1 11.4 14.4 11.4 10.7C13 10.7 14.9 9.7 16 8Z" stroke="#D4AF37" stroke-width="1.5"/>
  <path d="M16 10C16.6 11 17.6 11.5 18.5 11.5C18.5 13.6 17.5 15.1 16 16.1C14.5 15.1 13.5 13.6 13.5 11.5C14.4 11.5 15.4 11 16 10Z" stroke="#D4AF37" stroke-width="1.5"/>
</svg>